<mxfile host="app.diagrams.net" modified="2022-04-26T10:18:27.788Z" agent="5.0 (Macintosh; Intel Mac OS X 10_15_7) AppleWebKit/537.36 (KHTML, like Gecko) Chrome/100.0.4896.127 Safari/537.36" etag="C1NLxJssp0HcqCb6U7XF" version="17.4.6" type="github">
  <diagram id="COCRISKAF5RU_WuCZG3C" name="Page-1">
    <mxGraphModel dx="5608" dy="1064" grid="1" gridSize="10" guides="1" tooltips="1" connect="1" arrows="1" fold="1" page="1" pageScale="1" pageWidth="3300" pageHeight="2339" math="0" shadow="0">
      <root>
        <mxCell id="0" />
        <mxCell id="1" parent="0" />
        <mxCell id="ObiDn6EqENm9eNaDBc-o-1" value="" style="ellipse;whiteSpace=wrap;html=1;fillColor=#E6E6E6;" parent="1" vertex="1">
          <mxGeometry x="-21.25" y="30" width="1831.25" height="1170" as="geometry" />
        </mxCell>
        <mxCell id="ObiDn6EqENm9eNaDBc-o-2" value="" style="ellipse;whiteSpace=wrap;html=1;fillColor=#B3B3B3;" parent="1" vertex="1">
          <mxGeometry x="90" y="60" width="1590" height="980" as="geometry" />
        </mxCell>
        <mxCell id="ObiDn6EqENm9eNaDBc-o-3" value="" style="ellipse;whiteSpace=wrap;html=1;fillColor=#A9C4EB;" parent="1" vertex="1">
          <mxGeometry x="205" y="92" width="1105" height="775" as="geometry" />
        </mxCell>
        <mxCell id="ObiDn6EqENm9eNaDBc-o-5" value="" style="whiteSpace=wrap;html=1;aspect=fixed;fontSize=36;fillColor=#FFB570;" parent="1" vertex="1">
          <mxGeometry x="489.5" y="162" width="550.5" height="550.5" as="geometry" />
        </mxCell>
        <mxCell id="ObiDn6EqENm9eNaDBc-o-6" value="&lt;font style=&quot;font-size: 18px&quot;&gt;DBS Neurologe&lt;/font&gt;" style="shape=umlActor;verticalLabelPosition=bottom;verticalAlign=top;html=1;outlineConnect=0;fontSize=36;fillColor=#FFB570;" parent="1" vertex="1">
          <mxGeometry x="331" y="320" width="30" height="60" as="geometry" />
        </mxCell>
        <mxCell id="ObiDn6EqENm9eNaDBc-o-7" value="Neurochirurg" style="shape=umlActor;verticalLabelPosition=bottom;verticalAlign=top;html=1;outlineConnect=0;fontSize=18;fillColor=#FFB570;" parent="1" vertex="1">
          <mxGeometry x="310" y="560" width="30" height="60" as="geometry" />
        </mxCell>
        <mxCell id="ObiDn6EqENm9eNaDBc-o-8" value="Patient" style="shape=umlActor;verticalLabelPosition=bottom;verticalAlign=top;html=1;outlineConnect=0;fontSize=18;fillColor=#FFB570;" parent="1" vertex="1">
          <mxGeometry x="1620" y="470" width="30" height="60" as="geometry" />
        </mxCell>
        <mxCell id="ObiDn6EqENm9eNaDBc-o-9" value="Krankenhaus-IT-System" style="shape=umlActor;verticalLabelPosition=bottom;verticalAlign=top;html=1;outlineConnect=0;fontSize=18;fillColor=#FFB570;" parent="1" vertex="1">
          <mxGeometry x="1190" y="1010" width="30" height="60" as="geometry" />
        </mxCell>
        <mxCell id="ObiDn6EqENm9eNaDBc-o-13" value="&lt;font style=&quot;font-size: 14px&quot;&gt;Angabe der Patienten verwalten&lt;/font&gt;" style="rounded=1;whiteSpace=wrap;html=1;fontSize=18;fillColor=#FFFFFF;" parent="1" vertex="1">
          <mxGeometry x="667.5" y="190" width="230" height="50" as="geometry" />
        </mxCell>
        <mxCell id="ObiDn6EqENm9eNaDBc-o-14" value="&lt;font style=&quot;font-size: 14px&quot;&gt;Demo Modus anbieten&lt;/font&gt;" style="rounded=1;whiteSpace=wrap;html=1;fontSize=18;fillColor=#FFFFFF;" parent="1" vertex="1">
          <mxGeometry x="637" y="673" width="270" height="33" as="geometry" />
        </mxCell>
        <mxCell id="ObiDn6EqENm9eNaDBc-o-15" value="&lt;font style=&quot;font-size: 14px&quot;&gt;Stimulationsparameter auf dem Lead einsetzen bzw. konfigurieren&lt;/font&gt;" style="rounded=1;whiteSpace=wrap;html=1;fontSize=18;fillColor=#FFFFFF;" parent="1" vertex="1">
          <mxGeometry x="582" y="544" width="441" height="60" as="geometry" />
        </mxCell>
        <mxCell id="ObiDn6EqENm9eNaDBc-o-25" value="&lt;font style=&quot;font-size: 14px&quot;&gt;Monopolar / Bipolar Survey durchführen&lt;/font&gt;" style="rounded=1;whiteSpace=wrap;html=1;fontSize=18;fillColor=#FFFFFF;" parent="1" vertex="1">
          <mxGeometry x="635" y="423" width="330" height="60" as="geometry" />
        </mxCell>
        <mxCell id="ObiDn6EqENm9eNaDBc-o-26" value="&lt;font style=&quot;font-size: 14px&quot;&gt;von verschiedenen Benutzerrolle/ -profil benutzt werden kann&lt;/font&gt;" style="rounded=1;whiteSpace=wrap;html=1;fontSize=18;fillColor=#FFFFFF;" parent="1" vertex="1">
          <mxGeometry x="590" y="243" width="400" height="60" as="geometry" />
        </mxCell>
        <mxCell id="ObiDn6EqENm9eNaDBc-o-27" value="&lt;font style=&quot;font-size: 14px&quot;&gt;Angabe zum Zustand des IPGs&lt;/font&gt;" style="rounded=1;whiteSpace=wrap;html=1;fontSize=18;fillColor=#FFFFFF;" parent="1" vertex="1">
          <mxGeometry x="662.5" y="305" width="240" height="60" as="geometry" />
        </mxCell>
        <mxCell id="ObiDn6EqENm9eNaDBc-o-36" value="iPad Mini" style="rounded=0;whiteSpace=wrap;html=1;fontSize=12;fillColor=#FFB570;" parent="1" vertex="1">
          <mxGeometry x="1280" y="680" width="120" height="40" as="geometry" />
        </mxCell>
        <mxCell id="ObiDn6EqENm9eNaDBc-o-37" value="IPG" style="rounded=0;whiteSpace=wrap;html=1;fontSize=12;fillColor=#FFB570;" parent="1" vertex="1">
          <mxGeometry x="1380" y="630" width="120" height="40" as="geometry" />
        </mxCell>
        <mxCell id="ObiDn6EqENm9eNaDBc-o-47" value="&lt;font style=&quot;font-size: 18px&quot;&gt;DBSKrankenpfleger&lt;/font&gt;" style="shape=umlActor;verticalLabelPosition=bottom;verticalAlign=top;html=1;outlineConnect=0;fontSize=36;fillColor=#FFB570;" parent="1" vertex="1">
          <mxGeometry x="1129" y="286" width="30" height="60" as="geometry" />
        </mxCell>
        <mxCell id="ObiDn6EqENm9eNaDBc-o-49" value="&lt;font&gt;&lt;font style=&quot;font-size: 14px&quot;&gt;(Aktive) Stimulationsparameter dokumentieren&lt;/font&gt;&lt;br&gt;&lt;/font&gt;" style="rounded=1;whiteSpace=wrap;html=1;fontSize=18;fillColor=#FFFFFF;" parent="1" vertex="1">
          <mxGeometry x="667.5" y="490" width="270" height="50" as="geometry" />
        </mxCell>
        <mxCell id="_qRffOKylw16JEMIoA7c-6" value="&lt;font style=&quot;font-size: 14px&quot;&gt;Impedanzmessung durchführen&lt;/font&gt;" style="rounded=1;whiteSpace=wrap;html=1;fontSize=18;fillColor=#FFFFFF;" vertex="1" parent="1">
          <mxGeometry x="655" y="369" width="270" height="50" as="geometry" />
        </mxCell>
        <mxCell id="_qRffOKylw16JEMIoA7c-11" value="" style="endArrow=none;html=1;rounded=0;fontSize=14;exitX=0.5;exitY=0.5;exitDx=0;exitDy=0;exitPerimeter=0;entryX=0;entryY=0.5;entryDx=0;entryDy=0;" edge="1" parent="1" source="ObiDn6EqENm9eNaDBc-o-6" target="ObiDn6EqENm9eNaDBc-o-13">
          <mxGeometry width="50" height="50" relative="1" as="geometry">
            <mxPoint x="880" y="490" as="sourcePoint" />
            <mxPoint x="930" y="440" as="targetPoint" />
          </mxGeometry>
        </mxCell>
        <mxCell id="_qRffOKylw16JEMIoA7c-12" value="" style="endArrow=none;html=1;rounded=0;fontSize=14;exitX=0.5;exitY=0.5;exitDx=0;exitDy=0;exitPerimeter=0;entryX=0;entryY=0.5;entryDx=0;entryDy=0;" edge="1" parent="1" source="ObiDn6EqENm9eNaDBc-o-6" target="ObiDn6EqENm9eNaDBc-o-26">
          <mxGeometry width="50" height="50" relative="1" as="geometry">
            <mxPoint x="335" y="360" as="sourcePoint" />
            <mxPoint x="677.5" y="225" as="targetPoint" />
          </mxGeometry>
        </mxCell>
        <mxCell id="_qRffOKylw16JEMIoA7c-13" value="" style="endArrow=none;html=1;rounded=0;fontSize=14;entryX=0;entryY=0.5;entryDx=0;entryDy=0;exitX=0.5;exitY=0.5;exitDx=0;exitDy=0;exitPerimeter=0;" edge="1" parent="1" source="ObiDn6EqENm9eNaDBc-o-6" target="ObiDn6EqENm9eNaDBc-o-27">
          <mxGeometry width="50" height="50" relative="1" as="geometry">
            <mxPoint x="330" y="350" as="sourcePoint" />
            <mxPoint x="600" y="290" as="targetPoint" />
          </mxGeometry>
        </mxCell>
        <mxCell id="_qRffOKylw16JEMIoA7c-14" value="" style="endArrow=none;html=1;rounded=0;fontSize=14;entryX=0;entryY=0.5;entryDx=0;entryDy=0;" edge="1" parent="1" target="_qRffOKylw16JEMIoA7c-6">
          <mxGeometry width="50" height="50" relative="1" as="geometry">
            <mxPoint x="330" y="350" as="sourcePoint" />
            <mxPoint x="600" y="360" as="targetPoint" />
          </mxGeometry>
        </mxCell>
        <mxCell id="_qRffOKylw16JEMIoA7c-15" value="" style="endArrow=none;html=1;rounded=0;fontSize=14;entryX=0;entryY=0.5;entryDx=0;entryDy=0;exitX=0.5;exitY=0.5;exitDx=0;exitDy=0;exitPerimeter=0;" edge="1" parent="1" source="ObiDn6EqENm9eNaDBc-o-6" target="ObiDn6EqENm9eNaDBc-o-25">
          <mxGeometry width="50" height="50" relative="1" as="geometry">
            <mxPoint x="340" y="360" as="sourcePoint" />
            <mxPoint x="665" y="425" as="targetPoint" />
          </mxGeometry>
        </mxCell>
        <mxCell id="_qRffOKylw16JEMIoA7c-16" value="" style="endArrow=none;html=1;rounded=0;fontSize=14;entryX=0;entryY=0.5;entryDx=0;entryDy=0;exitX=0.5;exitY=0.5;exitDx=0;exitDy=0;exitPerimeter=0;" edge="1" parent="1" source="ObiDn6EqENm9eNaDBc-o-6" target="ObiDn6EqENm9eNaDBc-o-15">
          <mxGeometry width="50" height="50" relative="1" as="geometry">
            <mxPoint x="335" y="360" as="sourcePoint" />
            <mxPoint x="610" y="490" as="targetPoint" />
          </mxGeometry>
        </mxCell>
        <mxCell id="_qRffOKylw16JEMIoA7c-17" value="" style="endArrow=none;html=1;rounded=0;fontSize=14;entryX=0;entryY=0.5;entryDx=0;entryDy=0;exitX=0.5;exitY=0.5;exitDx=0;exitDy=0;exitPerimeter=0;" edge="1" parent="1" source="ObiDn6EqENm9eNaDBc-o-6" target="ObiDn6EqENm9eNaDBc-o-49">
          <mxGeometry width="50" height="50" relative="1" as="geometry">
            <mxPoint x="335" y="360" as="sourcePoint" />
            <mxPoint x="610" y="565" as="targetPoint" />
          </mxGeometry>
        </mxCell>
        <mxCell id="_qRffOKylw16JEMIoA7c-19" value="" style="endArrow=none;html=1;rounded=0;fontSize=14;entryX=1;entryY=0.5;entryDx=0;entryDy=0;exitX=0.5;exitY=0.5;exitDx=0;exitDy=0;exitPerimeter=0;" edge="1" parent="1" source="ObiDn6EqENm9eNaDBc-o-47" target="ObiDn6EqENm9eNaDBc-o-13">
          <mxGeometry width="50" height="50" relative="1" as="geometry">
            <mxPoint x="335" y="360" as="sourcePoint" />
            <mxPoint x="612.5" y="710" as="targetPoint" />
          </mxGeometry>
        </mxCell>
        <mxCell id="_qRffOKylw16JEMIoA7c-20" value="" style="endArrow=none;html=1;rounded=0;fontSize=14;entryX=1;entryY=0.5;entryDx=0;entryDy=0;exitX=0.5;exitY=0.5;exitDx=0;exitDy=0;exitPerimeter=0;" edge="1" parent="1" source="ObiDn6EqENm9eNaDBc-o-47" target="ObiDn6EqENm9eNaDBc-o-26">
          <mxGeometry width="50" height="50" relative="1" as="geometry">
            <mxPoint x="1215" y="300" as="sourcePoint" />
            <mxPoint x="907.5" y="225" as="targetPoint" />
          </mxGeometry>
        </mxCell>
        <mxCell id="_qRffOKylw16JEMIoA7c-21" value="" style="endArrow=none;html=1;rounded=0;fontSize=14;entryX=1;entryY=0.5;entryDx=0;entryDy=0;exitX=0.5;exitY=0.5;exitDx=0;exitDy=0;exitPerimeter=0;" edge="1" parent="1" source="ObiDn6EqENm9eNaDBc-o-47" target="ObiDn6EqENm9eNaDBc-o-27">
          <mxGeometry width="50" height="50" relative="1" as="geometry">
            <mxPoint x="1215" y="300" as="sourcePoint" />
            <mxPoint x="1000" y="290" as="targetPoint" />
          </mxGeometry>
        </mxCell>
        <mxCell id="_qRffOKylw16JEMIoA7c-22" value="" style="endArrow=none;html=1;rounded=0;fontSize=14;entryX=1;entryY=0.5;entryDx=0;entryDy=0;exitX=0.5;exitY=0.5;exitDx=0;exitDy=0;exitPerimeter=0;" edge="1" parent="1" source="ObiDn6EqENm9eNaDBc-o-47" target="_qRffOKylw16JEMIoA7c-6">
          <mxGeometry width="50" height="50" relative="1" as="geometry">
            <mxPoint x="1215" y="300" as="sourcePoint" />
            <mxPoint x="1000" y="360" as="targetPoint" />
          </mxGeometry>
        </mxCell>
        <mxCell id="_qRffOKylw16JEMIoA7c-23" value="" style="endArrow=none;html=1;rounded=0;fontSize=14;entryX=1;entryY=0.5;entryDx=0;entryDy=0;exitX=0.5;exitY=0.5;exitDx=0;exitDy=0;exitPerimeter=0;" edge="1" parent="1" source="ObiDn6EqENm9eNaDBc-o-47" target="ObiDn6EqENm9eNaDBc-o-25">
          <mxGeometry width="50" height="50" relative="1" as="geometry">
            <mxPoint x="1215" y="300" as="sourcePoint" />
            <mxPoint x="935" y="425" as="targetPoint" />
          </mxGeometry>
        </mxCell>
        <mxCell id="_qRffOKylw16JEMIoA7c-24" value="" style="endArrow=none;html=1;rounded=0;fontSize=14;exitX=0.5;exitY=0.5;exitDx=0;exitDy=0;exitPerimeter=0;entryX=1;entryY=0.5;entryDx=0;entryDy=0;" edge="1" parent="1" source="ObiDn6EqENm9eNaDBc-o-47" target="ObiDn6EqENm9eNaDBc-o-15">
          <mxGeometry width="50" height="50" relative="1" as="geometry">
            <mxPoint x="1215" y="300" as="sourcePoint" />
            <mxPoint x="1010" y="490" as="targetPoint" />
          </mxGeometry>
        </mxCell>
        <mxCell id="_qRffOKylw16JEMIoA7c-25" value="" style="endArrow=none;html=1;rounded=0;fontSize=14;exitX=0.5;exitY=0.5;exitDx=0;exitDy=0;exitPerimeter=0;entryX=1;entryY=0.5;entryDx=0;entryDy=0;" edge="1" parent="1" source="ObiDn6EqENm9eNaDBc-o-47" target="ObiDn6EqENm9eNaDBc-o-49">
          <mxGeometry width="50" height="50" relative="1" as="geometry">
            <mxPoint x="1215" y="300" as="sourcePoint" />
            <mxPoint x="1010" y="565" as="targetPoint" />
          </mxGeometry>
        </mxCell>
        <mxCell id="_qRffOKylw16JEMIoA7c-28" value="" style="endArrow=none;html=1;rounded=0;fontSize=14;entryX=0;entryY=0.5;entryDx=0;entryDy=0;exitX=0.5;exitY=0.5;exitDx=0;exitDy=0;exitPerimeter=0;" edge="1" parent="1" source="ObiDn6EqENm9eNaDBc-o-7" target="_qRffOKylw16JEMIoA7c-6">
          <mxGeometry width="50" height="50" relative="1" as="geometry">
            <mxPoint x="335" y="360" as="sourcePoint" />
            <mxPoint x="612.5" y="710" as="targetPoint" />
          </mxGeometry>
        </mxCell>
        <mxCell id="_qRffOKylw16JEMIoA7c-29" value="Marketing Personal" style="shape=umlActor;verticalLabelPosition=bottom;verticalAlign=top;html=1;outlineConnect=0;fontSize=18;fillColor=#FFB570;" vertex="1" parent="1">
          <mxGeometry x="806.75" y="754" width="30" height="60" as="geometry" />
        </mxCell>
        <mxCell id="_qRffOKylw16JEMIoA7c-30" value="" style="endArrow=none;html=1;rounded=0;fontSize=14;exitX=0.5;exitY=0.5;exitDx=0;exitDy=0;exitPerimeter=0;entryX=0.75;entryY=1;entryDx=0;entryDy=0;" edge="1" parent="1" source="_qRffOKylw16JEMIoA7c-29" target="ObiDn6EqENm9eNaDBc-o-14">
          <mxGeometry width="50" height="50" relative="1" as="geometry">
            <mxPoint x="1215" y="300" as="sourcePoint" />
            <mxPoint x="1012.5" y="710" as="targetPoint" />
          </mxGeometry>
        </mxCell>
        <mxCell id="_qRffOKylw16JEMIoA7c-31" value="&lt;font&gt;&lt;font style=&quot;font-size: 14px&quot;&gt;Bericht zum Stimulationsparameter drucken&lt;/font&gt;&lt;br&gt;&lt;/font&gt;" style="rounded=1;whiteSpace=wrap;html=1;fontSize=18;fillColor=#FFFFFF;" vertex="1" parent="1">
          <mxGeometry x="623.75" y="609" width="332.5" height="50" as="geometry" />
        </mxCell>
        <mxCell id="_qRffOKylw16JEMIoA7c-33" value="Trainee-Neurologe" style="shape=umlActor;verticalLabelPosition=bottom;verticalAlign=top;html=1;outlineConnect=0;fontSize=18;fillColor=#FFB570;" vertex="1" parent="1">
          <mxGeometry x="410" y="1000" width="30" height="60" as="geometry" />
        </mxCell>
        <mxCell id="_qRffOKylw16JEMIoA7c-34" value="" style="endArrow=none;html=1;rounded=0;fontSize=14;exitX=0.5;exitY=0.5;exitDx=0;exitDy=0;exitPerimeter=0;entryX=0;entryY=0.5;entryDx=0;entryDy=0;" edge="1" parent="1" source="_qRffOKylw16JEMIoA7c-33" target="ObiDn6EqENm9eNaDBc-o-14">
          <mxGeometry width="50" height="50" relative="1" as="geometry">
            <mxPoint x="1215" y="664" as="sourcePoint" />
            <mxPoint x="945" y="796.5" as="targetPoint" />
          </mxGeometry>
        </mxCell>
        <mxCell id="_qRffOKylw16JEMIoA7c-36" value="" style="endArrow=none;html=1;rounded=0;fontSize=14;exitX=0.5;exitY=0.5;exitDx=0;exitDy=0;exitPerimeter=0;entryX=1;entryY=0.5;entryDx=0;entryDy=0;" edge="1" parent="1" source="ObiDn6EqENm9eNaDBc-o-9" target="_qRffOKylw16JEMIoA7c-31">
          <mxGeometry width="50" height="50" relative="1" as="geometry">
            <mxPoint x="435" y="1040.0000000000002" as="sourcePoint" />
            <mxPoint x="677.5" y="636.5" as="targetPoint" />
          </mxGeometry>
        </mxCell>
        <mxCell id="_qRffOKylw16JEMIoA7c-40" value="" style="rounded=0;whiteSpace=wrap;html=1;fontSize=14;fillColor=#FFB570;" vertex="1" parent="1">
          <mxGeometry x="1325" y="330.5" width="265" height="169.5" as="geometry" />
        </mxCell>
        <mxCell id="_qRffOKylw16JEMIoA7c-37" value="" style="endArrow=none;html=1;rounded=0;fontSize=14;entryX=0;entryY=0.5;entryDx=0;entryDy=0;exitX=0.5;exitY=0.5;exitDx=0;exitDy=0;exitPerimeter=0;" edge="1" parent="1" source="ObiDn6EqENm9eNaDBc-o-6" target="_qRffOKylw16JEMIoA7c-31">
          <mxGeometry width="50" height="50" relative="1" as="geometry">
            <mxPoint x="335" y="360" as="sourcePoint" />
            <mxPoint x="592" y="584" as="targetPoint" />
          </mxGeometry>
        </mxCell>
        <mxCell id="_qRffOKylw16JEMIoA7c-38" value="" style="endArrow=none;html=1;rounded=0;fontSize=14;exitX=0.5;exitY=0.5;exitDx=0;exitDy=0;exitPerimeter=0;entryX=1;entryY=0.5;entryDx=0;entryDy=0;" edge="1" parent="1" source="ObiDn6EqENm9eNaDBc-o-47" target="_qRffOKylw16JEMIoA7c-31">
          <mxGeometry width="50" height="50" relative="1" as="geometry">
            <mxPoint x="1216" y="326" as="sourcePoint" />
            <mxPoint x="1033" y="584" as="targetPoint" />
          </mxGeometry>
        </mxCell>
        <mxCell id="ObiDn6EqENm9eNaDBc-o-16" value="&lt;span style=&quot;font-size: 12px&quot;&gt;Verbindung mit IPG über RC konfigurieren&lt;/span&gt;" style="rounded=1;whiteSpace=wrap;html=1;fontSize=18;fillColor=#FFFFFF;" parent="1" vertex="1">
          <mxGeometry x="1330" y="360.5" width="250" height="40" as="geometry" />
        </mxCell>
        <mxCell id="_qRffOKylw16JEMIoA7c-35" value="&lt;span style=&quot;font-size: 12px&quot;&gt;RC für Patient konfigurieren&lt;/span&gt;" style="rounded=1;whiteSpace=wrap;html=1;fontSize=18;fillColor=#FFFFFF;" vertex="1" parent="1">
          <mxGeometry x="1343" y="405.5" width="220" height="40" as="geometry" />
        </mxCell>
        <mxCell id="_qRffOKylw16JEMIoA7c-41" value="Remote Control" style="text;html=1;strokeColor=none;fillColor=none;align=center;verticalAlign=middle;whiteSpace=wrap;rounded=0;fontSize=14;" vertex="1" parent="1">
          <mxGeometry x="1388" y="331.5" width="130" height="30" as="geometry" />
        </mxCell>
        <mxCell id="_qRffOKylw16JEMIoA7c-42" value="Clinician Programmer" style="text;html=1;strokeColor=none;fillColor=none;align=center;verticalAlign=middle;whiteSpace=wrap;rounded=0;fontSize=14;" vertex="1" parent="1">
          <mxGeometry x="697.5" y="160" width="170" height="30" as="geometry" />
        </mxCell>
        <mxCell id="_qRffOKylw16JEMIoA7c-45" value="&lt;span style=&quot;font-size: 12px&quot;&gt;Stimulationsmode auswählen&lt;/span&gt;" style="rounded=1;whiteSpace=wrap;html=1;fontSize=18;fillColor=#FFFFFF;" vertex="1" parent="1">
          <mxGeometry x="1345" y="450" width="220" height="40" as="geometry" />
        </mxCell>
        <mxCell id="_qRffOKylw16JEMIoA7c-46" value="" style="endArrow=none;html=1;rounded=0;fontSize=14;exitX=0.5;exitY=0.5;exitDx=0;exitDy=0;exitPerimeter=0;entryX=1;entryY=0.25;entryDx=0;entryDy=0;" edge="1" parent="1" source="ObiDn6EqENm9eNaDBc-o-8" target="_qRffOKylw16JEMIoA7c-45">
          <mxGeometry width="50" height="50" relative="1" as="geometry">
            <mxPoint x="1154" y="326" as="sourcePoint" />
            <mxPoint x="1560" y="470" as="targetPoint" />
          </mxGeometry>
        </mxCell>
        <mxCell id="_qRffOKylw16JEMIoA7c-47" value="" style="endArrow=none;html=1;rounded=0;fontSize=14;exitX=0.5;exitY=0.5;exitDx=0;exitDy=0;exitPerimeter=0;entryX=1;entryY=0.5;entryDx=0;entryDy=0;" edge="1" parent="1" source="ObiDn6EqENm9eNaDBc-o-8" target="_qRffOKylw16JEMIoA7c-35">
          <mxGeometry width="50" height="50" relative="1" as="geometry">
            <mxPoint x="1645.000000000001" y="510" as="sourcePoint" />
            <mxPoint x="1575" y="470" as="targetPoint" />
          </mxGeometry>
        </mxCell>
        <mxCell id="_qRffOKylw16JEMIoA7c-48" value="" style="endArrow=none;html=1;rounded=0;fontSize=14;entryX=0.5;entryY=0.5;entryDx=0;entryDy=0;exitX=0;exitY=0.5;exitDx=0;exitDy=0;entryPerimeter=0;" edge="1" parent="1" source="ObiDn6EqENm9eNaDBc-o-16" target="ObiDn6EqENm9eNaDBc-o-47">
          <mxGeometry width="50" height="50" relative="1" as="geometry">
            <mxPoint x="1154" y="326" as="sourcePoint" />
            <mxPoint x="907.5" y="225" as="targetPoint" />
          </mxGeometry>
        </mxCell>
        <mxCell id="_qRffOKylw16JEMIoA7c-49" value="" style="endArrow=none;html=1;rounded=0;fontSize=14;entryX=0.5;entryY=0.5;entryDx=0;entryDy=0;entryPerimeter=0;exitX=0;exitY=0;exitDx=0;exitDy=0;" edge="1" parent="1" source="ObiDn6EqENm9eNaDBc-o-16" target="ObiDn6EqENm9eNaDBc-o-6">
          <mxGeometry width="50" height="50" relative="1" as="geometry">
            <mxPoint x="1330" y="380" as="sourcePoint" />
            <mxPoint x="1154" y="326" as="targetPoint" />
            <Array as="points">
              <mxPoint x="750" y="110" />
            </Array>
          </mxGeometry>
        </mxCell>
      </root>
    </mxGraphModel>
  </diagram>
</mxfile>
